<?xml version="1.0" encoding="utf-8"?>
<!-- Generator: Adobe Illustrator 22.1.0, SVG Export Plug-In . SVG Version: 6.00 Build 0)  -->
<svg version="1.1" id="Capa_1" xmlns="http://www.w3.org/2000/svg" xmlns:xlink="http://www.w3.org/1999/xlink" x="0px" y="0px"
	 viewBox="0 0 410 92" style="enable-background:new 0 0 410 92;" xml:space="preserve">
<g>
	<g>
		<g>
			<path d="M208.1,32.8v2.8h4.6v2.6h-4.6v2.8h5.3v2.6h-8.3V30.2h8.3v2.6H208.1z"/>
			<path d="M214.7,42.2l1.2-1.9c0.8,0.5,2,1,3,1c0.8,0,1.3-0.3,1.3-0.9c0-0.7-1-0.8-2.3-1.2c-1.4-0.4-2.9-1-2.9-2.8
				c0-2,1.9-2.9,4-2.9c1.3,0,2.6,0.4,3.6,1l-1.2,1.7c-0.7-0.4-1.8-0.8-2.6-0.8c-0.7,0-1.1,0.3-1.1,0.7c0,0.7,1.1,0.9,2.2,1.2
				c1.8,0.4,3,1.1,3,2.9c0,2.1-1.6,3.2-4,3.2C217.1,43.5,215.6,42.8,214.7,42.2z"/>
			<path d="M224.1,38.6c0-2.8,2.2-4.9,5-4.9c2.1,0,3.8,1.2,4.5,3l-2.4,1c-0.4-0.9-1.2-1.5-2.2-1.5c-1.4,0-2.4,1-2.4,2.4
				c0,1.3,1,2.4,2.4,2.4c1,0,1.8-0.6,2.2-1.4l2.4,1c-0.7,1.8-2.5,3-4.5,3C226.2,43.5,224.1,41.3,224.1,38.6z"/>
			<path d="M235.2,39.7v-5.9h2.8v5.6c0,1.1,0.6,1.6,1.5,1.6c0.9,0,1.5-0.6,1.5-1.6v-5.6h2.8v5.9c0,2.3-1.6,3.8-4.3,3.8
				C236.8,43.5,235.2,42,235.2,39.7z"/>
			<path d="M255.5,39.1h-7.1c0.2,1.4,1.1,2.2,2.3,2.2c0.9,0,1.7-0.4,2.2-1.2l2.2,0.9c-0.7,1.6-2.3,2.5-4.4,2.5
				c-3.1,0-5.1-2.2-5.1-4.9c0-2.8,2.1-4.9,5-4.9c2.7,0,4.9,1.9,4.9,4.8V39.1z M248.6,37.3h4c-0.3-0.9-0.9-1.5-1.9-1.5
				C249.7,35.8,248.9,36.4,248.6,37.3z"/>
			<path d="M257.5,30.2h2.8v13.3h-2.8V30.2z"/>
			<path d="M272.7,33.8v9.5h-2.6L270,42c-0.6,0.9-1.6,1.5-3.1,1.5c-2.5,0-4.5-2.1-4.5-5c0-2.9,2.1-4.9,4.5-4.9c1.4,0,2.3,0.6,3,1.3
				v-1.1H272.7z M270.1,38.5c0-1.4-1.1-2.5-2.4-2.5c-1.4,0-2.4,1.1-2.4,2.5c0,1.4,1.1,2.5,2.4,2.5C269,41,270.1,39.9,270.1,38.5z"/>
		</g>
		<g>
			<path d="M279.1,41.1l1.9-2c0.9,1.2,1.8,1.8,3.1,1.8c1.1,0,1.6-0.5,1.6-1.3c0-1.1-1.2-1.5-2.6-2c-1.6-0.6-3.5-1.5-3.5-3.9
				c0-2.4,2-3.7,4.2-3.7c1.8,0,3.2,0.8,4.2,1.9l-1.8,1.8c-0.9-1-1.8-1.3-2.5-1.3c-0.8,0-1.4,0.4-1.4,1.1c0,1,1.2,1.3,2.4,1.9
				c1.7,0.7,3.6,1.6,3.6,4.1c0,2.6-2.1,4-4.5,4C281.7,43.4,279.9,42.1,279.1,41.1z"/>
			<path d="M290.2,39.7v-5.9h2.8v5.6c0,1.1,0.6,1.6,1.5,1.6c0.9,0,1.5-0.6,1.5-1.6v-5.6h2.8v5.9c0,2.3-1.6,3.8-4.4,3.8
				C291.7,43.5,290.2,42,290.2,39.7z"/>
			<path d="M311.8,38.6c0,2.9-2.1,4.9-4.5,4.9c-1.4,0-2.3-0.6-3-1.3v6h-2.8V33.8h2.6l0.1,1.3c0.6-0.9,1.6-1.5,3.1-1.5
				C309.7,33.6,311.8,35.7,311.8,38.6z M309,38.6c0-1.4-1.1-2.5-2.4-2.5c-1.4,0-2.4,1.1-2.4,2.5c0,1.4,1.1,2.5,2.4,2.5
				C307.9,41,309,39.9,309,38.6z"/>
			<path d="M322.9,39.1h-7.1c0.2,1.4,1.1,2.2,2.3,2.2c0.9,0,1.7-0.4,2.2-1.2l2.2,0.9c-0.7,1.6-2.3,2.5-4.4,2.5
				c-3.1,0-5.1-2.2-5.1-4.9c0-2.8,2.1-4.9,5-4.9c2.7,0,4.9,1.9,4.9,4.8V39.1z M316,37.3h4c-0.3-0.9-0.9-1.5-1.9-1.5
				C317,35.8,316.3,36.3,316,37.3z"/>
			<path d="M331.9,34.1l-1,2.4c-0.3-0.2-0.7-0.3-1-0.3c-1.2,0-2.2,1-2.2,2.7v4.4h-2.8v-9.5h2.8v1.5c0.5-1,1.4-1.7,2.6-1.7
				C331,33.6,331.5,33.8,331.9,34.1z"/>
			<path d="M333.1,30.6c0-0.9,0.7-1.6,1.6-1.6c0.9,0,1.6,0.7,1.6,1.6c0,0.9-0.7,1.6-1.6,1.6C333.8,32.2,333.1,31.5,333.1,30.6z
				 M333.3,33.8h2.8v9.5h-2.8V33.8z"/>
			<path d="M338.1,38.5c0-2.7,2.2-4.9,5-4.9c2.9,0,5,2.2,5,4.9c0,2.7-2.2,4.9-5,4.9C340.2,43.4,338.1,41.3,338.1,38.5z M345.4,38.5
				c0-1.4-1-2.4-2.3-2.4c-1.3,0-2.3,1-2.3,2.4c0,1.4,1,2.4,2.3,2.4C344.4,41,345.4,39.9,345.4,38.5z"/>
			<path d="M357.1,34.1l-1,2.4c-0.3-0.2-0.7-0.3-1-0.3c-1.2,0-2.2,1-2.2,2.7v4.4h-2.8v-9.5h2.8v1.5c0.5-1,1.4-1.7,2.6-1.7
				C356.2,33.6,356.7,33.8,357.1,34.1z"/>
		</g>
		<path d="M215.5,54.4c0,2.3-1.7,3.9-4,3.9h-3.5v5.4h-3V50.4h6.4C213.8,50.4,215.5,52.2,215.5,54.4z M212.7,54.4
			c0-0.9-0.7-1.5-1.6-1.5h-3v2.9h3C212,55.9,212.7,55.3,212.7,54.4z"/>
		<path d="M215.9,59c0-2.8,2.2-5,5.1-5c2.9,0,5.1,2.2,5.1,5s-2.2,5-5.1,5C218.1,63.9,215.9,61.8,215.9,59z M223.4,59
			c0-1.4-1-2.5-2.4-2.5c-1.3,0-2.4,1-2.4,2.5c0,1.5,1,2.4,2.4,2.4C222.3,61.4,223.4,60.4,223.4,59z"/>
		<path d="M228.1,50.4h2.9v13.4h-2.9V50.4z"/>
		<path d="M233.7,51c0-0.9,0.7-1.6,1.6-1.6c0.9,0,1.6,0.7,1.6,1.6c0,0.9-0.7,1.6-1.6,1.6C234.4,52.6,233.7,51.8,233.7,51z
			 M233.8,54.2h2.9v9.6h-2.9V54.2z"/>
		<path d="M244.8,56.4H243v7.3h-2.9v-7.3h-1.8v-2.2h1.8v-3.4h2.9v3.4h1.8V56.4z"/>
		<path d="M255.6,59.5h-7.1c0.2,1.4,1.1,2.2,2.3,2.2c0.9,0,1.7-0.4,2.2-1.3l2.3,0.9c-0.7,1.6-2.4,2.6-4.5,2.6
			c-3.1,0-5.2-2.2-5.2-4.9c0-2.8,2.1-5,5.1-5c2.8,0,4.9,1.9,4.9,4.9V59.5z M248.6,57.7h4.1c-0.3-0.9-0.9-1.5-2-1.5
			C249.7,56.2,248.9,56.8,248.6,57.7z M250.6,53.1l-1-1.1l3.1-3.3l1.4,1.5L250.6,53.1z"/>
		<path d="M256.7,59c0-2.8,2.2-5,5.1-5c2.1,0,3.9,1.2,4.6,3l-2.4,1c-0.4-0.9-1.2-1.5-2.2-1.5c-1.4,0-2.4,1.1-2.4,2.4
			c0,1.4,1,2.4,2.4,2.4c1,0,1.8-0.6,2.2-1.5l2.4,1c-0.7,1.8-2.5,3-4.6,3C258.9,63.9,256.7,61.8,256.7,59z"/>
		<path d="M277.2,57.6v6.1h-2.9V58c0-0.9-0.7-1.5-1.6-1.5c-1,0-1.6,0.7-1.6,1.6v5.7h-2.9v-9.6h2.9v1c0.7-0.8,1.7-1.2,2.7-1.2
			C275.7,54,277.2,55.6,277.2,57.6z"/>
		<path d="M279.7,51c0-0.9,0.7-1.6,1.6-1.6c0.9,0,1.6,0.7,1.6,1.6c0,0.9-0.7,1.6-1.6,1.6C280.4,52.6,279.7,51.8,279.7,51z
			 M279.8,54.2h2.9v9.6h-2.9V54.2z"/>
		<path d="M284.7,59c0-2.8,2.2-5,5.1-5c2.1,0,3.9,1.2,4.6,3l-2.4,1c-0.4-0.9-1.2-1.5-2.2-1.5c-1.4,0-2.4,1.1-2.4,2.4
			c0,1.4,1,2.4,2.4,2.4c1,0,1.8-0.6,2.2-1.5l2.4,1c-0.7,1.8-2.5,3-4.6,3C286.8,63.9,284.7,61.8,284.7,59z"/>
		<path d="M305.9,54.2v9.6h-2.6l-0.1-1.3c-0.6,0.9-1.6,1.5-3.2,1.5c-2.5,0-4.6-2.1-4.6-5c0-2.9,2.1-5,4.6-5c1.4,0,2.4,0.6,3,1.4
			v-1.1H305.9z M303.2,59c0-1.4-1.1-2.5-2.5-2.5c-1.4,0-2.5,1.1-2.5,2.5c0,1.4,1.1,2.5,2.5,2.5C302.1,61.5,303.2,60.4,303.2,59z"/>
		<path d="M323.3,50.4v13.4h-2.6l-0.1-1.3c-0.6,0.9-1.6,1.5-3.2,1.5c-2.5,0-4.6-2.1-4.6-5c0-2.9,2.1-5,4.6-5c1.4,0,2.4,0.6,3,1.4
			v-4.9H323.3z M320.7,59c0-1.4-1.1-2.5-2.5-2.5c-1.4,0-2.5,1.1-2.5,2.5c0,1.4,1.1,2.5,2.5,2.5C319.6,61.5,320.7,60.4,320.7,59z"/>
		<path d="M335.3,59.5h-7.1c0.2,1.4,1.1,2.2,2.3,2.2c0.9,0,1.7-0.4,2.2-1.3l2.3,0.9c-0.7,1.6-2.4,2.6-4.5,2.6
			c-3.1,0-5.2-2.2-5.2-4.9c0-2.8,2.1-5,5.1-5c2.8,0,4.9,1.9,4.9,4.9V59.5z M328.3,57.7h4.1c-0.3-0.9-0.9-1.5-2-1.5
			C329.4,56.2,328.7,56.8,328.3,57.7z"/>
		<path d="M337.3,50.4h2.9v13.4h-2.9V50.4z"/>
		<g>
			<path d="M353.8,61.2v2.5h-7.2V50.4h2.9v10.9H353.8z"/>
			<path d="M355.1,51c0-0.9,0.7-1.6,1.6-1.6c0.9,0,1.6,0.7,1.6,1.6c0,0.9-0.7,1.6-1.6,1.6C355.9,52.6,355.1,51.8,355.1,51z
				 M355.3,54.2h2.9v9.6h-2.9V54.2z"/>
			<path d="M366.3,56.4h-1.8v7.3h-2.9v-7.3h-1.8v-2.2h1.8v-3.4h2.9v3.4h1.8V56.4z"/>
			<path d="M367.1,59c0-2.8,2.2-5,5.1-5c2.9,0,5.1,2.2,5.1,5s-2.2,5-5.1,5C369.3,63.9,367.1,61.8,367.1,59z M374.5,59
				c0-1.4-1-2.5-2.4-2.5c-1.3,0-2.4,1-2.4,2.5c0,1.5,1,2.4,2.4,2.4C373.5,61.4,374.5,60.4,374.5,59z"/>
			<path d="M386.3,54.5l-1,2.5c-0.3-0.2-0.7-0.3-1-0.3c-1.2,0-2.2,1-2.2,2.7v4.4h-2.9v-9.6h2.9v1.5c0.5-1,1.4-1.7,2.6-1.7
				C385.4,54,385.9,54.2,386.3,54.5z"/>
			<path d="M397.1,54.2v9.6h-2.6l-0.1-1.3c-0.6,0.9-1.6,1.5-3.2,1.5c-2.5,0-4.6-2.1-4.6-5c0-2.9,2.1-5,4.6-5c1.4,0,2.4,0.6,3,1.4
				v-1.1H397.1z M394.4,59c0-1.4-1.1-2.5-2.5-2.5c-1.4,0-2.5,1.1-2.5,2.5c0,1.4,1.1,2.5,2.5,2.5C393.3,61.5,394.4,60.4,394.4,59z"/>
			<path d="M399.9,50.4h2.9v13.4h-2.9V50.4z"/>
		</g>
	</g>
	<g>
		<path d="M147.8,30c-9.3,0-16.8,7.5-16.8,16.8c0,9.3,7.5,16.8,16.8,16.8c9.3,0,16.8-7.5,16.8-16.8C164.7,37.5,157.1,30,147.8,30z
			 M147.8,57.2c-5.7,0-10.4-4.7-10.4-10.4c0-5.7,4.7-10.4,10.4-10.4c5.7,0,10.4,4.7,10.4,10.4C158.2,52.6,153.6,57.2,147.8,57.2z"/>
		<g>
			<path d="M107.4,30c-9.3,0-16.8,7.5-16.8,16.7h0v37.2c0,0,4.1,0,6.8,0c0,0-0.1-23.7,0-23.6c2.8,2.1,6.3,3.4,10.1,3.4
				c9.3,0,16.8-7.5,16.8-16.8C124.2,37.6,116.7,30,107.4,30z M107.4,57.3c-5.8,0-10.4-4.7-10.4-10.4c0-5.7,4.7-10.4,10.4-10.4
				c5.7,0,10.4,4.7,10.4,10.4C117.8,52.6,113.1,57.3,107.4,57.3z"/>
			<g>
				<polygon points="33.2,54 33.2,54 33.2,54 				"/>
			</g>
			<path d="M188.7,57.1L188.7,57.1c-5.9,0-10.7-4.8-10.7-10.7V9.9h-6.6v36.5h0c0,9.5,7.7,17.3,17.3,17.3v0c0,0,0,0,0,0h0
				c0.3,0-2.2,0,2.9,0v-6.6H188.7z"/>
		</g>
		<path d="M78.9,35.1c-4.5-4.4-10.8-5.9-16.4-4.3c-0.5,0.1-4.9,1.6-7.4,4.3L34.9,53.9c-1.1,1.1-2.2,2-3.6,2.7
			c-1.5,0.6-3,0.9-4.6,0.8c-2.4-0.2-4.8-1.2-6.6-3c-1.4-1.4-2.3-3.1-2.8-4.9l14.9,0l10.4-9.7c-1-1.8-2.6-4.1-3.3-4.8
			c-6.6-6.6-17.3-6.5-23.8,0c-6.6,6.6-6.5,17.3,0,23.8c4.5,4.4,10.8,5.9,16.4,4.3c2.7-0.7,5.3-2,7.4-4.1l21.3-19.8
			c4.1-3.5,9.8-3.5,13.7,0.4c4.1,4.1,4.1,10.6,0,14.7c-2.9,2.9-7.1,3.7-10.7,2.5l0,6.7c5.4,1.1,11.1-0.5,15.3-4.6
			C85.5,52.3,85.5,41.6,78.9,35.1z M20.1,39.5c1.9-1.9,4.5-3,7.3-3h0c3,0,5.6,1.3,7.5,3.3l-4.1,3.7H17.6C18.1,42,19,40.6,20.1,39.5z
			"/>
	</g>
</g>
<g>
</g>
<g>
</g>
<g>
</g>
<g>
</g>
<g>
</g>
<g>
</g>
<g>
</g>
<g>
</g>
<g>
</g>
<g>
</g>
<g>
</g>
<g>
</g>
<g>
</g>
<g>
</g>
<g>
</g>
</svg>
